<?xml version="1.0" encoding="UTF-8"?>
<svg width="1200pt" height="1200pt" version="1.1" viewBox="0 0 1200 1200" xmlns="http://www.w3.org/2000/svg">
 <path d="m676.18 402.52c-2.3438-10.688-11.719-18.797-22.688-19.547-134.34-7.8281-247.31 7.8281-327.89 25.031-129.89 27.656-234.52 72-309.66 110.86-9.6562 5.2031-14.625 16.172-12.516 26.859l81.891 383.72c23.203 108.8 100.17 198.52 204.24 237.66l35.484 13.547c109.55 41.484 233.21 15.141 316.18-67.312l27.141-26.859c79.031-78.516 112.69-191.48 89.484-300.24zm-377.72 325.03c-6.2812-29.203-34.969-47.719-64.172-41.719-14.062 3.1406-26.109 11.484-33.891 23.719-8.1094 12.281-10.688 26.625-7.8281 40.688 2.3438 10.453-4.4531 20.859-14.859 23.203-1.5469 0.28125-2.8594 0.28125-4.1719 0.28125-9.1406 0-17.203-6.2812-19.031-15.375-5.2031-24.281-0.51562-49.031 13.031-70.172 13.547-20.859 34.453-35.203 58.688-40.453 50.109-10.969 99.891 21.375 110.62 71.719 2.1094 10.453-4.4531 20.859-15.141 23.203-10.453 2.1094-20.859-4.4531-23.203-15.141zm252 144.79c-15.891 48.281-56.344 84.797-105.38 95.203-9.6562 2.1094-19.547 2.8594-29.203 2.8594-39.656 0-78.516-16.688-105.89-46.969-7.3125-7.8281-6.7969-20.344 1.3125-27.375 7.8281-7.3125 20.344-6.7969 27.656 1.3125 24.797 27.141 62.344 39.375 97.828 31.828 35.719-7.5469 64.969-34.172 76.453-69.141 3.375-10.172 14.625-15.891 24.797-12.516 10.453 3.375 15.891 14.344 12.516 24.797zm59.484-191.21c-10.453 2.3438-20.859-4.4531-23.203-14.859-6.2812-29.203-34.969-48-64.172-41.719s-48 34.969-41.719 64.172c2.3438 10.688-4.4531 20.859-14.859 23.203-1.5469 0.28125-2.8594 0.51562-4.1719 0.51562-9.1406 0-17.203-6.2812-19.031-15.656-10.688-50.109 21.375-99.891 71.719-110.62 50.109-10.688 99.891 21.375 110.62 71.719 2.0625 10.688-4.4531 21.141-15.141 23.203zm572.34-584.34c-121.82-51.891-231.66-75.141-312.24-85.828-129.66-17.719-241.31-11.203-324 0.28125-10.688 1.3125-19.031 9.8906-20.344 20.344l-42.281 314.06c57.141-4.4531 114.8-5.2031 172.18-1.8281 28.688 1.8281 52.969 22.453 58.688 50.625l18.797 87.375c23.484-10.453 49.312-14.062 75.141-10.688 49.031 6.5156 91.547 39.375 110.86 85.547 3.8906 9.8906-0.79688 21.375-10.688 25.547-2.3438 1.0312-4.9688 1.5469-7.5469 1.5469-7.5469 0-14.859-4.4531-18-12-13.828-33.375-44.625-57.141-80.062-62.062-21.141-2.8594-42.516 1.3125-61.312 11.719l54.797 256.45c1.3125 6.2812 2.625 12.797 3.6562 19.312 43.547 0.79688 87.656-8.3438 128.63-27.375l34.172-16.172c99.141-46.172 167.72-139.82 182.63-248.34l51.656-382.97c1.3125-10.688-4.6875-21.375-14.625-25.547zm-430.97 195.66c-16.453 12.516-35.719 19.031-55.828 19.031-3.8906 0-8.1094-0.28125-12.281-1.0312-24.281-3.1406-45.891-15.938-60.797-35.484-15.141-19.547-21.375-43.828-18.281-68.062 1.5469-10.688 11.484-18.281 21.891-16.688 10.969 1.3125 18.281 11.203 16.969 21.891-3.8906 28.969 16.453 55.828 45.375 59.719 29.203 3.8906 55.828-16.453 59.719-45.375 1.3125-10.688 11.203-18.281 21.891-16.969 10.688 1.5469 18.281 11.484 16.688 22.172-3.1406 24.281-15.891 45.656-35.484 60.797zm287.72 38.859c-16.453 12.281-35.719 18.797-55.828 18.797-4.1719 0-8.1094-0.28125-12.281-0.79688-50.344-6.7969-85.828-53.203-79.031-103.55 1.5469-10.688 11.203-18.281 21.891-16.688 10.688 1.3125 18.281 11.203 16.969 21.891-2.1094 13.828 1.8281 27.891 10.453 39.141 8.625 11.203 20.859 18.516 34.969 20.625 13.828 1.8281 27.656-2.0625 39.141-10.688 11.203-8.625 18.516-20.859 20.344-34.969 1.5469-10.688 11.484-18.281 22.172-16.688 10.688 1.5469 18.281 11.203 16.688 21.891-3.375 24.281-15.891 45.891-35.484 61.031z" fill="#3b6af9"/>
</svg>
